<svg width="200" height="60" viewBox="0 0 200 60" fill="none" xmlns="http://www.w3.org/2000/svg">
  <!-- Background shape for the 'D' -->
  <path d="M44 10C48.4183 10 52 13.5817 52 18V42C52 46.4183 48.4183 50 44 50H18C13.5817 50 10 46.4183 10 42V18C10 13.5817 13.5817 10 18 10H44Z" fill="#e31e24"/>
  
  <!-- 'D' letter -->
  <path d="M28 15H20V45H28C35.732 45 42 38.732 42 31V29C42 21.268 35.732 15 28 15Z" fill="white"/>
  <path d="M28 20H25V40H28C32.9706 40 37 35.9706 37 31V29C37 24.0294 32.9706 20 28 20Z" fill="#e31e24"/>
  
  <!-- 'ouglas' text -->
  <path d="M53 28.5C53 23.8056 56.8056 20 61.5 20C66.1944 20 70 23.8056 70 28.5C70 33.1944 66.1944 37 61.5 37C56.8056 37 53 33.1944 53 28.5Z" fill="white"/>
  <path d="M57 28.5C57 26.0147 59.0147 24 61.5 24C63.9853 24 66 26.0147 66 28.5C66 30.9853 63.9853 33 61.5 33C59.0147 33 57 30.9853 57 28.5Z" fill="#1a237e"/>
  
  <path d="M72 29V20H76V29C76 32.3137 78.6863 35 82 35C85.3137 35 88 32.3137 88 29V20H92V29C92 34.5228 87.5228 39 82 39C76.4772 39 72 34.5228 72 29Z" fill="white"/>
  
  <path d="M95 20H99V25.1147C100.435 22.1978 103.431 20 107 20V24C102.582 24 99 27.5817 99 32V39H95V20Z" fill="white"/>
  
  <path d="M110 29.5C110 24.8056 113.806 21 118.5 21C123.194 21 127 24.8056 127 29.5C127 34.1944 123.194 38 118.5 38C113.806 38 110 34.1944 110 29.5ZM114 29.5C114 32.0376 116.015 34 118.5 34C120.985 34 123 32.0376 123 29.5C123 26.9624 120.985 25 118.5 25C116.015 25 114 26.9624 114 29.5Z" fill="white"/>
  
  <path d="M129 29.5C129 24.8056 132.806 21 137.5 21C142.194 21 146 24.8056 146 29.5C146 34.1944 142.194 38 137.5 38C132.806 38 129 34.1944 129 29.5ZM133 29.5C133 32.0376 135.015 34 137.5 34C139.985 34 142 32.0376 142 29.5C142 26.9624 139.985 25 137.5 25C135.015 25 133 26.9624 133 29.5Z" fill="white"/>
  
  <!-- 'Auto' text -->
  <path d="M153 38L160.5 21H165.5L173 38H168.5L166.5 32.5H159.5L157.5 38H153ZM161 29H165L163 23L161 29Z" fill="white"/>
  
  <path d="M175 21H179V24C180.5 22 182.736 21 185 21C189.418 21 193 24.582 193 29V38H189V29C189 26.7909 187.209 25 185 25C182.791 25 181 26.7909 181 29V38H177L177 21H175V21Z" fill="white"/>
  
  <path d="M196 29.5C196 24.8056 199.806 21 204.5 21C209.194 21 213 24.8056 213 29.5C213 34.1944 209.194 38 204.5 38C199.806 38 196 34.1944 196 29.5ZM200 29.5C200 32.0376 202.015 34 204.5 34C206.985 34 209 32.0376 209 29.5C209 26.9624 206.985 25 204.5 25C202.015 25 200 26.9624 200 29.5Z" fill="white"/>
  
  <!-- 'Car' text -->
  <path d="M151 45C153.209 45 155 46.7909 155 49C155 51.2091 153.209 53 151 53H147V58H143V45H151ZM147 49H151C151 48.4477 150.552 48 150 48H147V49Z" fill="#e31e24"/>
  
  <path d="M159 50.5C159 47.4624 161.462 45 164.5 45C167.538 45 170 47.4624 170 50.5C170 53.5376 167.538 56 164.5 56C161.462 56 159 53.5376 159 50.5ZM163 50.5C163 51.3284 163.672 52 164.5 52C165.328 52 166 51.3284 166 50.5C166 49.6716 165.328 49 164.5 49C163.672 49 163 49.6716 163 50.5Z" fill="#e31e24"/>
  
  <path d="M171 45H175V48C176 46.3431 177.791 45 180 45V49C177.791 49 176 50.7909 176 53V58H172V45H171Z" fill="#e31e24"/>
</svg>
